<svg xmlns="http://www.w3.org/2000/svg" width="136" height="217"><path d="M31 90.008L.5 107.762l-.256 35.369-.257 35.369 30.825 17.745 30.826 17.745 30.645-17.731c16.855-9.752 30.324-18.036 29.931-18.41-.393-.374-13.764-8.188-29.714-17.365-15.95-9.176-29.301-16.976-29.669-17.334-.368-.357 12.173-8.064 27.867-17.125 15.695-9.062 29.209-16.968 30.032-17.57 1.198-.876-4.151-4.351-26.867-17.458-15.6-9.001-29.263-16.9-30.363-17.554-1.755-1.044-5.734.984-32.5 16.565" fill="undefined" fill-rule="evenodd"/></svg>